<svg xmlns="http://www.w3.org/2000/svg" width="900" height="900" viewBox="0 0 900 900"><defs><linearGradient id="bg" x1="0" x2="1"><stop stop-color="#02070b"/><stop offset=".6" stop-color="#101820"/><stop offset="1" stop-color="#3a2a02"/></linearGradient><filter id="g"><feGaussianBlur stdDeviation="12"/></filter></defs><rect width="900" height="900" rx="34" fill="url(#bg)"/><g opacity=".95"><rect x="470" y="150" width="360" height="430" rx="8" fill="#d69d00"/><path d="M470 210h360M470 280h360M470 350h360M470 420h360M470 490h360M540 150v430M610 150v430M680 150v430M750 150v430" stroke="#171717" stroke-width="4"/><rect x="610" y="230" width="72" height="250" fill="#141a1f"/><rect x="625" y="270" width="42" height="70" fill="#35404a"/></g><circle cx="720" cy="370" r="100" fill="#67e86f" opacity=".16" filter="url(#g)"/><text x="720" y="400" text-anchor="middle" fill="#b7ff75" font-size="120">📦</text><g font-family="Arial,Helvetica,sans-serif"><rect x="46" y="48" width="62" height="62" rx="18" fill="#071019" stroke="#fff" stroke-opacity=".15"/><text x="77" y="89" text-anchor="middle" font-size="34">📦</text><text x="132" y="82" fill="#fff" font-size="38" font-weight="700">ALDI Odendorf</text><text x="132" y="112" fill="#9aa4b0" font-size="20">Gewerbepark Odendorf 6, 53913 Swisttal</text><rect x="46" y="258" width="330" height="74" rx="37" fill="#041015" stroke="#67e86f" stroke-width="2"/><circle cx="80" cy="295" r="10" fill="#67e86f"/><text x="106" y="303" fill="#67e86f" font-size="22" font-weight="700">GUTE KAPAZITÄT</text><text x="46" y="412" fill="#67e86f" font-size="58" font-weight="800">Viele freie</text><text x="46" y="472" fill="#67e86f" font-size="58" font-weight="800">Fächer</text><rect x="46" y="625" width="808" height="220" rx="24" fill="#041015" fill-opacity=".94" stroke="#fff" stroke-opacity=".12"/><text x="76" y="680" fill="#fff" font-size="28" font-weight="700">Wochenprognose</text><rect x="76" y="710" width="88" height="82" rx="14" fill="#fff" fill-opacity=".04"/><text x="120" y="746" text-anchor="middle" fill="#b4bdc8" font-size="20">Mo</text><circle cx="120" cy="772" r="8" fill="#ff4d55"/><rect x="183" y="710" width="88" height="82" rx="14" fill="#fff" fill-opacity=".04"/><text x="227" y="746" text-anchor="middle" fill="#b4bdc8" font-size="20">Di</text><circle cx="227" cy="772" r="8" fill="#67e86f"/><rect x="290" y="710" width="88" height="82" rx="14" fill="#fff" fill-opacity=".04"/><text x="334" y="746" text-anchor="middle" fill="#b4bdc8" font-size="20">Mi</text><circle cx="334" cy="772" r="8" fill="#ff4d55"/><rect x="397" y="710" width="88" height="82" rx="14" fill="#fff" fill-opacity=".04"/><text x="441" y="746" text-anchor="middle" fill="#b4bdc8" font-size="20">Do</text><circle cx="441" cy="772" r="8" fill="#ff4d55"/><rect x="504" y="710" width="88" height="82" rx="14" fill="#fff" fill-opacity=".04"/><text x="548" y="746" text-anchor="middle" fill="#b4bdc8" font-size="20">Fr</text><circle cx="548" cy="772" r="8" fill="#ff4d55"/><rect x="611" y="710" width="88" height="82" rx="14" fill="#fff" fill-opacity=".04"/><text x="655" y="746" text-anchor="middle" fill="#b4bdc8" font-size="20">Sa</text><circle cx="655" cy="772" r="8" fill="#ff4d55"/><rect x="718" y="710" width="88" height="82" rx="14" fill="#fff" fill-opacity=".04"/><text x="762" y="746" text-anchor="middle" fill="#b4bdc8" font-size="20">So</text><circle cx="762" cy="772" r="8" fill="#ff4d55"/><text x="450" y="822" text-anchor="middle" fill="#818c98" font-size="15">DHL-Prognose anhand vergangener Wochen, kein aktueller Live-Füllstand</text></g></svg>